<svg width="45" height="45" viewBox="0 0 45 45" fill="none" xmlns="http://www.w3.org/2000/svg">
<g clip-path="url(#clip0_0_370)">
<mask id="mask0_0_370" style="mask-type:luminance" maskUnits="userSpaceOnUse" x="32" y="5" width="7" height="8">
<path d="M32.9111 5.87354L37.3287 5.17444L38.4307 12.1379L34.0131 12.837L32.9111 5.87354Z" fill="white"/>
</mask>
<g mask="url(#mask0_0_370)">
<path d="M34.9378 12.6462C34.6953 12.6846 34.4373 12.6275 34.2366 12.4557C33.8559 12.1465 33.797 11.5829 34.1061 11.2023C35.28 9.75782 35.7516 7.64008 35.6883 6.2858C35.663 5.79223 36.0495 5.3768 36.5433 5.35145C37.0368 5.3259 37.4525 5.71257 37.4778 6.20614C37.5565 7.94251 36.9747 10.5071 35.4989 12.3313C35.3456 12.5063 35.1512 12.6124 34.9378 12.6462Z" fill="#FF3F45"/>
</g>
<mask id="mask1_0_370" style="mask-type:luminance" maskUnits="userSpaceOnUse" x="3" y="11" width="38" height="29">
<path d="M3.31641 16.2515L36.4799 11.0032L40.1678 34.3063L7.00423 39.5546L3.31641 16.2515Z" fill="white"/>
</mask>
<g mask="url(#mask1_0_370)">
<path d="M17.372 37.9137C16.3862 38.0697 15.3852 38.1753 14.3683 38.2306C12.357 38.3379 10.5345 38.1137 9.10636 37.5709C7.7587 37.0605 6.80652 36.2839 6.42451 35.3944C6.06754 34.569 6.24111 33.7123 6.8914 33.1043C7.52807 32.506 8.43019 32.2502 9.56297 31.9276C11.5759 31.3527 14.6134 30.4877 18.2826 26.9444C22.6901 22.6811 23.7352 19.1839 24.4316 16.8647C24.7665 15.7415 25.0321 14.8476 25.5895 14.2241C26.7712 12.8761 28.1593 12.1665 29.7123 12.1166C31.0926 12.0717 32.5531 12.534 34.1881 13.5268C36.0084 14.6407 37.1493 16.1339 37.5604 17.9684C37.954 19.6926 37.6832 21.6504 36.7692 23.785C36.12 25.3051 34.0993 29.2131 29.5155 32.7427C27.5193 34.2799 25.3089 35.5118 22.9492 36.4205C21.1732 37.1086 19.3067 37.6075 17.372 37.9137ZM29.3384 13.9474C28.4631 14.086 27.6645 14.5666 26.9302 15.4065C26.636 15.7394 26.4195 16.4673 26.1414 17.3783C25.4413 19.7204 24.2668 23.6377 19.5258 28.225C15.5369 32.0827 12.2393 33.0194 10.0533 33.6442C9.15118 33.9 8.4369 34.1036 8.1161 34.4107C8.04437 34.4823 7.99892 34.5271 8.07088 34.6967C8.21385 35.0284 8.72052 35.5135 9.73957 35.9026C10.5744 36.2227 12.0398 36.5714 14.2678 36.4523C15.2541 36.3944 16.2038 36.2969 17.1159 36.1526C27.5247 34.5054 33.2858 27.3592 35.1281 23.0873C35.8945 21.3077 36.1256 19.7181 35.822 18.3716C35.5185 17.0251 34.6558 15.9102 33.2621 15.0602C31.9524 14.2649 30.7825 13.8771 29.7772 13.908C29.6266 13.9093 29.4782 13.9253 29.3384 13.9474Z" fill="#FF3F45"/>
</g>
<path d="M23.1512 28.2166C22.8716 28.2608 22.5786 28.1716 22.3708 27.9555C22.0284 27.6027 22.0369 27.0361 22.3898 26.6936C25.6989 23.4939 26.5274 20.8675 27.1369 18.9542C27.3732 18.2083 27.5793 17.5576 27.897 17.0398C28.5788 15.9144 29.6575 15.2989 30.8644 15.3492C32.1031 15.4092 33.266 16.1827 33.8245 17.3306C34.0376 17.7717 33.8583 18.3053 33.4106 18.5269C32.9693 18.7398 32.4357 18.5605 32.2141 18.1131C31.9456 17.5601 31.371 17.1685 30.7787 17.1418C30.2315 17.1151 29.7639 17.4003 29.4237 17.9666C29.2213 18.3078 29.0443 18.8559 28.8442 19.4982C28.2144 21.4749 27.2702 24.4665 23.6417 27.9805C23.4959 28.1092 23.3278 28.1886 23.1512 28.2166Z" fill="#FF3F45"/>
<path d="M35.2353 16.0971C34.9705 16.139 34.6943 16.0622 34.4828 15.8693C34.1206 15.5346 34.1057 14.9641 34.4418 14.6094C34.7198 14.3168 34.8381 13.9209 34.7753 13.5238C34.6635 12.8178 33.9988 12.3352 33.2928 12.4469C32.7704 12.5296 32.3374 12.9373 32.2315 13.459C32.1271 13.9429 31.6555 14.2513 31.1714 14.1469C30.6876 14.0428 30.3792 13.5712 30.4836 13.0873C30.7472 11.8472 31.7628 10.8797 33.0135 10.6818C34.6906 10.4164 36.2753 11.5678 36.5406 13.2444C36.6908 14.1933 36.4026 15.1358 35.7443 15.8355C35.6084 15.9778 35.4264 16.0668 35.2353 16.0971Z" fill="#FF3F45"/>
</g>
<defs>
<clipPath id="clip0_0_370">
<rect width="38.8914" height="38.8914" fill="white" transform="translate(0 6.0791) rotate(-8.99275)"/>
</clipPath>
</defs>
</svg>
