<svg xmlns="http://www.w3.org/2000/svg" xmlns:xlink="http://www.w3.org/1999/xlink" width="40" zoomAndPan="magnify" viewBox="0 0 30 30.000001" height="40" preserveAspectRatio="xMidYMid meet" version="1.0"><defs><clipPath id="064fc58df4"><path d="M 2.457031 14.515625 L 27.859375 14.515625 L 27.859375 27.582031 L 2.457031 27.582031 Z M 2.457031 14.515625 " clip-rule="nonzero"/></clipPath><clipPath id="a1cfb5d183"><path d="M 5 2 L 27 2 L 27 13 L 5 13 Z M 5 2 " clip-rule="nonzero"/></clipPath><clipPath id="af42f38c2c"><path d="M 12.445312 -3.746094 L 28.898438 3.910156 L 20.933594 21.019531 L 4.484375 13.363281 Z M 12.445312 -3.746094 " clip-rule="nonzero"/></clipPath><clipPath id="91a4ba66a6"><path d="M 12.445312 -3.746094 L 28.898438 3.910156 L 20.933594 21.019531 L 4.484375 13.363281 Z M 12.445312 -3.746094 " clip-rule="nonzero"/></clipPath><clipPath id="4761cd4c58"><path d="M 5 5 L 28 5 L 28 14 L 5 14 Z M 5 5 " clip-rule="nonzero"/></clipPath><clipPath id="dfdaa176ba"><path d="M 12.445312 -3.746094 L 28.898438 3.910156 L 20.933594 21.019531 L 4.484375 13.363281 Z M 12.445312 -3.746094 " clip-rule="nonzero"/></clipPath><clipPath id="5ee33ed20e"><path d="M 12.445312 -3.746094 L 28.898438 3.910156 L 20.933594 21.019531 L 4.484375 13.363281 Z M 12.445312 -3.746094 " clip-rule="nonzero"/></clipPath></defs><g clip-path="url(#064fc58df4)"><path fill="#efc14b" d="M 27.671875 14.515625 L 2.703125 14.515625 C 2.585938 14.515625 2.488281 14.59375 2.488281 14.707031 C 2.46875 19.734375 5.617188 24.183594 10.375 26.085938 L 10.375 27.371094 C 10.375 27.484375 10.511719 27.582031 10.628906 27.582031 L 19.746094 27.582031 C 19.863281 27.582031 19.882812 27.484375 19.882812 27.371094 L 19.882812 26.085938 C 24.640625 24.203125 27.851562 19.753906 27.851562 14.707031 C 27.851562 14.59375 27.769531 14.515625 27.671875 14.515625 Z M 27.671875 14.515625 " fill-opacity="1" fill-rule="nonzero"/></g><g clip-path="url(#a1cfb5d183)"><g clip-path="url(#af42f38c2c)"><g clip-path="url(#91a4ba66a6)"><path fill="#efc14b" d="M 25.804688 2.675781 C 25.941406 2.613281 26.078125 2.609375 26.21875 2.664062 L 26.257812 2.679688 C 26.386719 2.742188 26.480469 2.839844 26.53125 2.96875 C 26.585938 3.097656 26.585938 3.230469 26.535156 3.359375 C 26.484375 3.496094 26.386719 3.59375 26.25 3.652344 L 20.792969 5.914062 L 20.421875 5.109375 Z M 5.222656 11.988281 L 19.847656 5.371094 L 20.207031 6.160156 L 5.375 12.316406 C 5.265625 12.367188 5.1875 12.335938 5.136719 12.226562 C 5.085938 12.117188 5.117188 12.039062 5.226562 11.992188 Z M 5.222656 11.988281 " fill-opacity="1" fill-rule="nonzero"/></g></g></g><g clip-path="url(#4761cd4c58)"><g clip-path="url(#dfdaa176ba)"><g clip-path="url(#5ee33ed20e)"><path fill="#efc14b" d="M 5.84375 13.925781 C 5.730469 13.964844 5.652344 13.929688 5.613281 13.816406 C 5.570312 13.703125 5.605469 13.628906 5.71875 13.589844 L 20.8125 8.054688 L 21.113281 8.863281 Z M 27.328125 6.804688 L 21.714844 8.664062 L 21.410156 7.828125 L 26.957031 5.789062 C 27.097656 5.742188 27.238281 5.746094 27.375 5.808594 C 27.507812 5.875 27.601562 5.976562 27.65625 6.113281 C 27.710938 6.253906 27.703125 6.390625 27.640625 6.527344 C 27.578125 6.664062 27.472656 6.757812 27.328125 6.804688 Z M 27.328125 6.804688 " fill-opacity="1" fill-rule="nonzero"/></g></g></g></svg>