<svg width="42" height="38" viewBox="0 0 42 38" fill="none" xmlns="http://www.w3.org/2000/svg">
<mask id="mask0_0_1573" style="mask-type:luminance" maskUnits="userSpaceOnUse" x="0" y="22" width="40" height="16">
<path d="M0.5625 22.8101H39.6804V37.7498H0.5625V22.8101Z" fill="white"/>
</mask>
<g mask="url(#mask0_0_1573)">
<path d="M24.4928 37.7498C18.8296 37.7498 13.3191 35.8989 10.4535 33.0346C9.18852 31.7324 7.99306 30.3693 6.86712 28.9459C5.76766 27.6031 4.73275 26.3336 4.15385 26.0439C3.28901 25.6115 1.88251 25.9227 1.41368 26.0791C1.36485 26.0952 1.3152 26.1056 1.26389 26.1097C1.21299 26.1143 1.16209 26.1126 1.11161 26.1048C1.06071 26.0969 1.01188 26.0836 0.964297 26.0642C0.917125 26.0448 0.872434 26.0199 0.831055 25.9901C0.789261 25.9599 0.752019 25.9256 0.718502 25.8867C0.684984 25.8478 0.656846 25.8056 0.633259 25.7601C0.610087 25.7145 0.592293 25.667 0.580293 25.6169C0.568293 25.5672 0.5625 25.5167 0.5625 25.4654C0.5625 25.201 0.691605 22.8792 5.08986 22.8792C7.1783 22.8792 8.53886 24.2629 9.85391 25.6012C10.3008 26.1246 10.7965 26.5963 11.3415 27.0168C11.8861 27.4376 12.4683 27.7976 13.0877 28.0976C13.7991 28.3819 14.3523 28.6335 14.8398 28.8561C16.5574 29.6357 17.3403 29.9911 21.259 29.9911C25.32 29.9911 27.2177 27.8928 28.8907 26.041C29.2213 25.6756 29.5374 25.3252 29.8552 25.0065C33.1743 21.6895 35.7018 22.8242 37.2374 24.3598C39.8323 26.9539 40.3516 29.92 38.5309 31.7394C37.899 32.3283 37.2196 32.8554 36.4921 33.321C36.457 33.3446 36.4197 33.3644 36.3804 33.3806C36.3411 33.3967 36.3005 33.4091 36.2592 33.4174C36.2174 33.4257 36.1752 33.4298 36.133 33.4298C36.0903 33.4298 36.0481 33.4257 36.0067 33.417C35.965 33.4087 35.9244 33.3967 35.8851 33.3801C35.8462 33.364 35.8089 33.3441 35.7734 33.3206C35.7382 33.297 35.7055 33.2701 35.6757 33.2399C35.6455 33.2101 35.6186 33.1774 35.595 33.1418C35.5714 33.1066 35.5516 33.0694 35.5354 33.0301C35.5193 32.9908 35.5069 32.9502 35.4986 32.9088C35.4903 32.867 35.4862 32.8248 35.4866 32.7826C35.4866 32.74 35.4907 32.6982 35.499 32.6564C35.5073 32.6146 35.5197 32.5745 35.5358 32.5352C35.552 32.4959 35.5723 32.4586 35.5958 32.4234C35.6194 32.3883 35.6463 32.3556 35.6761 32.3254C35.7063 32.2956 35.739 32.2687 35.7742 32.2451C36.4301 31.8251 37.0441 31.3509 37.6164 30.8229C37.693 30.7459 37.7646 30.6648 37.8303 30.5787C37.8966 30.4927 37.9566 30.4025 38.0108 30.3085C38.0646 30.2146 38.1121 30.1173 38.1535 30.0172C38.1949 29.9167 38.2293 29.814 38.257 29.7093C38.2847 29.6042 38.3054 29.4983 38.319 29.3907C38.3327 29.2831 38.3393 29.1751 38.3385 29.0663C38.3381 28.9579 38.3302 28.8499 38.3153 28.7427C38.3004 28.6351 38.2785 28.5292 38.2495 28.4249C38.0811 27.8199 37.8332 27.2497 37.5059 26.7139C37.1786 26.178 36.7843 25.6972 36.3229 25.2714C36.2401 25.1712 36.1512 25.0765 36.0564 24.9879C35.9616 24.8989 35.8615 24.8166 35.756 24.7405C35.6505 24.6643 35.5408 24.5952 35.4262 24.5336C35.312 24.4715 35.194 24.4173 35.0728 24.3701C34.9516 24.3234 34.8278 24.2845 34.7016 24.2538C34.5754 24.2228 34.4476 24.2 34.3185 24.1851C34.1893 24.1707 34.0598 24.1645 33.9295 24.1665C33.7995 24.1686 33.6704 24.1789 33.5418 24.1976C33.0046 24.3416 32.5002 24.56 32.0281 24.853C31.5559 25.146 31.1363 25.501 30.7689 25.9181C30.4664 26.2206 30.1643 26.555 29.8494 26.9034C28.0887 28.8577 25.8944 31.2843 21.259 31.2843C17.0602 31.2843 16.0849 30.8403 14.3076 30.0325C13.8326 29.8165 13.2942 29.5715 12.611 29.2989C11.9068 28.9678 11.2443 28.5673 10.6244 28.0968C10.0045 27.6263 9.44011 27.0966 8.93156 26.5078C7.70009 25.2548 6.63622 24.1723 5.08986 24.1723C4.28254 24.1396 3.49964 24.2625 2.74156 24.541C3.08253 24.5145 3.42143 24.5307 3.75826 24.589C4.0955 24.6478 4.41992 24.7471 4.73234 24.8869C5.56117 25.3012 6.52946 26.4871 7.86975 28.1286C8.9688 29.5178 10.1349 30.8485 11.368 32.1205C14.0031 34.7544 19.1548 36.4567 24.4928 36.4567C27.0054 36.4567 30.4263 35.3449 33.8773 33.4062C33.9146 33.3847 33.9531 33.3665 33.994 33.3524C34.0346 33.3383 34.076 33.3284 34.1186 33.323C34.1612 33.3172 34.2042 33.3156 34.2473 33.3185C34.2899 33.321 34.3321 33.328 34.3739 33.3392C34.4153 33.3503 34.4554 33.3657 34.4939 33.3847C34.5324 33.4041 34.5684 33.4269 34.6023 33.4534C34.6362 33.4795 34.6673 33.5092 34.6954 33.5415C34.7236 33.5742 34.748 33.6094 34.7691 33.6466C34.7902 33.6843 34.8076 33.7232 34.8208 33.7641C34.834 33.8051 34.8431 33.8469 34.8477 33.8895C34.8527 33.9321 34.8535 33.9752 34.8498 34.0178C34.846 34.0608 34.8386 34.103 34.8266 34.144C34.8142 34.1854 34.7985 34.2251 34.7786 34.2632C34.7587 34.3013 34.7351 34.3368 34.7078 34.3704C34.6809 34.4039 34.6507 34.4341 34.6176 34.4618C34.5845 34.4891 34.5489 34.5131 34.5113 34.5334C32.3728 35.7346 28.2265 37.7498 24.4928 37.7498Z" fill="#606060"/>
</g>
<path d="M21.1181 33.9244C21.0754 33.9244 21.0334 33.9202 20.9914 33.9117C20.9495 33.9033 20.9092 33.8906 20.8697 33.8742C20.8302 33.8577 20.7928 33.8374 20.7575 33.8133C20.7218 33.7893 20.689 33.7618 20.659 33.7314C20.6287 33.7006 20.6017 33.6672 20.578 33.6313C20.5543 33.595 20.5344 33.557 20.5182 33.5173C20.502 33.4772 20.4895 33.4358 20.4812 33.3936C20.4729 33.3509 20.4688 33.3079 20.4688 33.2648C20.4688 33.2213 20.4729 33.1782 20.4812 33.136C20.4895 33.0933 20.502 33.0524 20.5182 33.0123C20.5344 32.9721 20.5543 32.9341 20.578 32.8982C20.6017 32.8619 20.6287 32.8286 20.659 32.7982C20.689 32.7673 20.7218 32.7403 20.7575 32.7162C20.7928 32.6922 20.8302 32.6715 20.8697 32.655C20.9092 32.6385 20.9495 32.6259 20.9914 32.6174C21.0334 32.609 21.0754 32.6048 21.1181 32.6048C26.3495 32.6048 28.9757 29.6555 30.7091 27.7037L30.7681 27.6378C31.0486 27.3232 31.3174 27.0209 31.5871 26.7472C32.7841 25.5302 33.2224 25.3469 34.1061 25.3469C34.9367 25.3469 35.4203 26.1425 35.7099 26.6176C35.7581 26.7042 35.8117 26.7873 35.8707 26.8663C35.8981 26.8988 35.9226 26.9335 35.9438 26.9702C35.9654 27.0074 35.9829 27.0458 35.997 27.0863C36.0111 27.1264 36.0211 27.1678 36.0277 27.2101C36.034 27.2523 36.0365 27.2949 36.0348 27.3376C36.0331 27.3807 36.0273 27.4229 36.0182 27.4643C36.0086 27.5061 35.9953 27.5466 35.9783 27.5859C35.9612 27.6247 35.9405 27.6619 35.9164 27.6969C35.8927 27.7324 35.8657 27.7649 35.8354 27.7949C35.8059 27.8241 35.7743 27.8502 35.7398 27.8735C35.7053 27.8967 35.6692 27.9161 35.6309 27.9317C35.5927 27.9478 35.5537 27.9596 35.5129 27.9676C35.4726 27.9757 35.4319 27.9799 35.3904 27.9799C35.3492 27.9799 35.3085 27.9757 35.2682 27.9676C35.2275 27.9596 35.1885 27.9478 35.1502 27.9317C35.112 27.9161 35.0759 27.8967 35.0414 27.8735C35.0069 27.8502 34.9753 27.8241 34.9458 27.7949C34.8149 27.6471 34.7015 27.4866 34.6055 27.3131C34.505 27.1476 34.2366 26.7075 34.0961 26.6674C33.6549 26.6674 33.5028 26.6674 32.5053 27.6813C32.2506 27.9402 31.9967 28.2257 31.7325 28.5234L31.6726 28.5892C29.783 30.7133 26.9262 33.9244 21.1181 33.9244Z" fill="#606060"/>
<path d="M39.1832 27.8885L38.1023 27.2694C38.3603 26.7118 38.5392 26.1224 38.6397 25.5014C38.596 25.2696 38.5299 25.0467 38.4419 24.8322C38.3538 24.6181 38.2456 24.4178 38.1177 24.2316C37.9899 24.0455 37.845 23.8788 37.6835 23.7303C37.5224 23.5823 37.3486 23.4573 37.162 23.3545C37.1083 23.3124 37.0503 23.2805 36.9881 23.2597C36.9256 23.2384 36.8618 23.2286 36.7969 23.2304C36.7316 23.2322 36.6687 23.2455 36.6072 23.2703C36.5458 23.2951 36.4894 23.3301 36.4376 23.3753C36.3256 23.4759 36.234 23.5961 36.1626 23.737L35.082 23.1178C35.1091 23.0509 35.1388 22.9853 35.172 22.9215C35.2049 22.8581 35.2404 22.7965 35.2787 22.7371C35.3169 22.6773 35.3579 22.6205 35.4015 22.5656C35.4448 22.5111 35.4904 22.4588 35.5387 22.4096C35.5866 22.3599 35.6368 22.3134 35.6889 22.27C35.7411 22.2265 35.7948 22.1862 35.8508 22.149C35.9064 22.1117 35.9636 22.0776 36.0223 22.047C36.0811 22.0165 36.1413 21.9894 36.2024 21.9659C36.2634 21.9424 36.3256 21.9225 36.3886 21.9061C36.4512 21.8897 36.5149 21.8773 36.579 21.8684C36.6428 21.8596 36.7073 21.8542 36.7718 21.8529C36.8363 21.8516 36.9004 21.8538 36.965 21.86C37.0291 21.8658 37.0928 21.8755 37.1566 21.8893C37.2199 21.903 37.2825 21.9198 37.3443 21.9411C37.4061 21.9619 37.4672 21.9863 37.5267 22.0142C37.5865 22.0422 37.6449 22.0736 37.7021 22.1082C37.845 22.1871 37.9837 22.2757 38.1174 22.3746C38.251 22.473 38.3785 22.5807 38.5006 22.6972C38.6227 22.8142 38.7378 22.9392 38.8463 23.0722C38.9549 23.2056 39.0557 23.3461 39.1488 23.4932C39.2423 23.6408 39.3273 23.7946 39.4038 23.9542C39.4807 24.1137 39.5483 24.2782 39.6074 24.4475C39.6661 24.6168 39.7156 24.7896 39.7557 24.966C39.7959 25.1424 39.8264 25.3206 39.8473 25.5014C39.7507 26.3426 39.5294 27.1386 39.1832 27.8885Z" fill="#606060"/>
<mask id="mask1_0_1573" style="mask-type:luminance" maskUnits="userSpaceOnUse" x="37" y="15" width="5" height="10">
<path d="M37.9858 15.7129H41.9558V24.1875H37.9858V15.7129Z" fill="white"/>
</mask>
<g mask="url(#mask1_0_1573)">
<path d="M38.722 24.1726C38.6541 24.1726 38.5879 24.1622 38.5234 24.1415C38.4588 24.1204 38.3988 24.0902 38.3438 24.0505C38.2888 24.0108 38.2412 23.9636 38.201 23.909C38.1605 23.8544 38.1299 23.7948 38.1083 23.7306C38.0868 23.6661 38.0757 23.5999 38.0752 23.5324C38.0744 23.4646 38.0843 23.398 38.1046 23.3334C38.1249 23.2684 38.1547 23.2084 38.1936 23.153C38.2329 23.0975 38.2797 23.0495 38.3339 23.009C38.3579 22.9916 40.6623 21.2239 40.6623 19.0001C40.6623 17.4194 40.1939 16.8604 40.1893 16.855C40.162 16.8235 40.138 16.7896 40.1169 16.7536C40.0958 16.7176 40.0784 16.6795 40.0648 16.6402C40.0511 16.6009 40.0412 16.5604 40.035 16.519C40.0288 16.4776 40.0267 16.4362 40.0288 16.3944C40.0304 16.3526 40.0362 16.3117 40.0462 16.2711C40.0557 16.2302 40.0693 16.1908 40.0863 16.1528C40.1037 16.1147 40.1244 16.0787 40.1484 16.0444C40.1724 16.0104 40.1993 15.979 40.2295 15.95C40.2593 15.9215 40.2915 15.8958 40.3259 15.8739C40.3606 15.8515 40.3971 15.8325 40.4355 15.8176C40.4736 15.8023 40.5129 15.7907 40.5535 15.7833C40.594 15.7758 40.635 15.7721 40.676 15.7725C40.7173 15.7725 40.7579 15.777 40.7984 15.7853C40.8386 15.7936 40.8779 15.8056 40.916 15.8213C40.954 15.837 40.99 15.8565 41.0244 15.8793C41.0587 15.902 41.0902 15.9281 41.1196 15.957C41.2594 16.0965 41.9558 16.8988 41.9558 19.0001C41.9558 21.8768 39.2256 23.9562 39.1102 24.0435C38.9951 24.13 38.8656 24.173 38.722 24.1726Z" fill="#606060"/>
</g>
<path d="M26.8853 26.2999C26.8163 26.2999 26.7481 26.2906 26.6817 26.2717C26.6153 26.2528 26.5534 26.225 26.4959 26.1884C26.438 26.1519 26.3877 26.1085 26.3436 26.0577C26.2999 26.0068 26.2647 25.9513 26.2384 25.8907C26.2126 25.8302 26.1961 25.7671 26.1899 25.7019C26.1836 25.6367 26.1876 25.5724 26.2019 25.508C26.2161 25.4441 26.2398 25.3836 26.2732 25.326C26.3066 25.2688 26.3485 25.217 26.3979 25.1716C27.6891 23.99 28.2887 22.2616 28.2887 19.7293C28.2918 18.8823 28.2264 18.0396 28.0923 17.2024C28.086 17.1599 28.0838 17.1174 28.086 17.0745C28.0887 17.0316 28.0954 16.9896 28.1065 16.948C28.1172 16.9067 28.1328 16.8664 28.152 16.8277C28.1716 16.789 28.1947 16.7524 28.2215 16.7179C28.2486 16.6835 28.2789 16.6519 28.3123 16.6233C28.3458 16.5943 28.3823 16.5687 28.4211 16.5468C28.4598 16.5245 28.5004 16.506 28.5431 16.4913C28.5859 16.4766 28.6296 16.466 28.6741 16.4593C28.7191 16.453 28.7641 16.4505 28.8095 16.4522C28.855 16.4539 28.8995 16.4597 28.9437 16.4698C28.9878 16.4795 29.0305 16.4938 29.072 16.5115C29.113 16.5291 29.1522 16.5506 29.1891 16.5758C29.2257 16.601 29.2595 16.6292 29.2907 16.6603C29.3215 16.6914 29.3491 16.7255 29.3731 16.7617C29.3968 16.7983 29.4168 16.8365 29.4328 16.8765C29.4489 16.9164 29.4609 16.9576 29.4685 16.9997C29.6137 17.9046 29.6846 18.8142 29.6814 19.7293C29.6814 22.6405 28.9468 24.6691 27.3714 26.1136C27.3063 26.1733 27.2319 26.2196 27.1477 26.2515C27.0635 26.2839 26.9762 26.2999 26.8853 26.2999Z" fill="#606060"/>
<mask id="mask2_0_1573" style="mask-type:luminance" maskUnits="userSpaceOnUse" x="9" y="0" width="21" height="29">
<path d="M9.5957 0.25H29.0872V28.1069H9.5957V0.25Z" fill="white"/>
</mask>
<g mask="url(#mask2_0_1573)">
<path d="M15.4381 28.0516C15.3628 28.0516 15.29 28.0387 15.2197 28.0135C8.99158 25.7815 9.61269 18.3674 9.61725 18.2934C9.61725 16.0059 10.6087 14.6002 11.661 13.1126C11.8733 12.8126 12.0918 12.5035 12.3078 12.1758C13.516 10.3654 14.1458 7.2665 14.1525 7.23547C14.1669 7.16181 14.1938 7.09271 14.2327 7.02815C14.2716 6.96401 14.3201 6.90815 14.3784 6.86056C14.4367 6.81298 14.5013 6.77698 14.5721 6.75215C14.6432 6.72732 14.7161 6.71491 14.7914 6.71574C14.9072 6.72277 15.0214 6.73974 15.1344 6.76663C15.2474 6.79394 15.357 6.83036 15.4638 6.8767C15.5701 6.92305 15.6719 6.97808 15.7688 7.04222C15.8656 7.10595 15.9566 7.17795 16.0406 7.25781C16.125 7.33767 16.202 7.42416 16.2711 7.51726C16.3406 7.61037 16.401 7.70885 16.4532 7.81271C16.5053 7.91616 16.5479 8.02375 16.581 8.13506C16.6146 8.24637 16.6377 8.35934 16.6514 8.47479C17.0151 8.33037 17.3511 8.13837 17.6606 7.89878C17.9697 7.65961 18.2395 7.38195 18.47 7.06581C19.4805 5.692 19.7689 3.65281 19.3278 1.00326C19.3196 0.953191 19.3171 0.902707 19.3204 0.852224C19.3241 0.801741 19.3332 0.752085 19.3485 0.703671C19.3638 0.655256 19.3841 0.608911 19.4102 0.565462C19.4362 0.5216 19.4673 0.481875 19.5025 0.445461C19.538 0.409047 19.5774 0.377184 19.62 0.350287C19.663 0.322977 19.7085 0.301459 19.7565 0.284907C19.8049 0.268356 19.8542 0.258011 19.9047 0.253045C19.9551 0.248493 20.0056 0.249321 20.0561 0.256769C20.2382 0.282425 24.5388 0.930432 25.7529 4.57144C26.5987 7.10677 25.9333 8.65438 25.2882 10.1507C25.0473 10.6207 24.8599 11.1115 24.7258 11.6225C24.5918 12.1336 24.514 12.6529 24.4929 13.1809C24.4887 13.2244 24.4891 13.2678 24.4945 13.3113C24.4999 13.3547 24.5098 13.3969 24.5247 13.4383C24.5392 13.4793 24.5582 13.5186 24.5818 13.5554C24.6054 13.5922 24.6323 13.6262 24.6633 13.6572C24.6944 13.6882 24.7283 13.7151 24.7651 13.7387C24.802 13.7619 24.8413 13.7809 24.8822 13.7958C24.9236 13.8103 24.9658 13.8206 25.0093 13.826C25.0527 13.8314 25.0962 13.8318 25.1396 13.8277C25.5278 13.8277 25.7864 12.6599 25.7864 11.8878C25.7864 11.8278 25.7947 11.769 25.8108 11.7111C25.8274 11.6536 25.8514 11.599 25.8828 11.5481C25.9147 11.4968 25.9523 11.4512 25.9966 11.4107C26.0413 11.3701 26.0901 11.3366 26.1439 11.3097C26.1977 11.2828 26.254 11.2638 26.3127 11.2526C26.3719 11.2414 26.4315 11.2385 26.4911 11.2439C26.5511 11.2493 26.609 11.263 26.6649 11.2845C26.7212 11.306 26.7733 11.3345 26.8213 11.3705C27.3456 11.846 27.7921 12.3856 28.1608 12.9893C28.5294 13.5931 28.8055 14.2369 28.9883 14.9201C28.9999 14.9602 29.0074 15.0008 29.0107 15.0418C29.0144 15.0831 29.014 15.1245 29.0099 15.1655C29.0053 15.2069 28.997 15.2474 28.985 15.2867C28.973 15.3265 28.9569 15.3645 28.9375 15.4013C28.918 15.4378 28.8952 15.4721 28.8692 15.5044C28.8431 15.5367 28.8141 15.566 28.7827 15.5925C28.7508 15.6194 28.7169 15.6426 28.6805 15.6629C28.6445 15.6831 28.6064 15.6993 28.5671 15.7121C28.5278 15.7254 28.4877 15.734 28.4463 15.7394C28.4053 15.7444 28.3639 15.7456 28.3225 15.7427C28.2812 15.7398 28.2406 15.7332 28.2005 15.7225C28.1603 15.7117 28.1219 15.6976 28.0846 15.6794C28.047 15.6612 28.0118 15.6401 27.9787 15.6153C27.9456 15.5905 27.915 15.5623 27.8872 15.5317C27.8595 15.5011 27.8347 15.468 27.8132 15.4324C27.7916 15.3972 27.7739 15.36 27.7598 15.3211C27.5483 14.6528 27.257 14.0213 26.8858 13.4267C26.6272 14.3669 26.0818 15.1208 25.1396 15.1208C25.0755 15.1224 25.0113 15.1212 24.9476 15.1167C24.8839 15.1117 24.8202 15.1038 24.7573 15.0927C24.694 15.0819 24.6315 15.0674 24.5702 15.05C24.5086 15.0327 24.4478 15.012 24.3882 14.9884C24.3286 14.9648 24.2706 14.9379 24.2135 14.9085C24.1569 14.8787 24.1018 14.8464 24.048 14.8113C23.9946 14.7761 23.9429 14.7384 23.8933 14.6979C23.8436 14.6573 23.796 14.6147 23.7509 14.5692C23.7054 14.5241 23.6628 14.4765 23.6222 14.4269C23.5817 14.3772 23.544 14.3255 23.5088 14.2721C23.4737 14.2187 23.441 14.1633 23.4116 14.1066C23.3818 14.0499 23.3553 13.9915 23.3317 13.932C23.3082 13.8724 23.2875 13.812 23.2701 13.7503C23.2523 13.6886 23.2382 13.6266 23.227 13.5633C23.2159 13.5004 23.208 13.4366 23.2035 13.3729C23.1989 13.3088 23.1973 13.245 23.1993 13.1809C23.2179 12.5648 23.3036 11.9581 23.4555 11.361C23.6077 10.7635 23.8229 10.19 24.101 9.64004C24.6985 8.24968 25.2153 7.04843 24.5264 4.98027C23.8556 2.97004 21.8855 2.09279 20.7352 1.74354C21.017 4.31902 20.5994 6.37353 19.4909 7.86071C19.2922 8.13175 19.07 8.38127 18.8238 8.6101C18.5776 8.83893 18.3124 9.04252 18.0277 9.22045C17.743 9.3988 17.4438 9.54901 17.1306 9.67025C16.8173 9.79191 16.4954 9.88294 16.1652 9.94294C16.1197 9.94874 16.0741 9.94956 16.0282 9.94543C15.9827 9.9417 15.938 9.93301 15.8941 9.91936C15.8503 9.9057 15.8085 9.88791 15.7683 9.86556C15.7286 9.8428 15.6914 9.81674 15.657 9.78611C15.6227 9.75591 15.5917 9.72239 15.5643 9.68556C15.5374 9.64873 15.5143 9.60942 15.4952 9.56763C15.4766 9.52584 15.4621 9.48239 15.4526 9.4377C15.4431 9.39301 15.4381 9.34749 15.4381 9.30156C15.4592 8.95728 15.3901 8.63203 15.2312 8.32624C14.8522 9.94336 14.2381 11.4657 13.389 12.8933C13.1635 13.231 12.9363 13.5496 12.7199 13.8587C11.709 15.2876 10.9108 16.4139 10.9108 18.3534C10.8868 18.6455 10.4734 23.7481 14.2737 26.1295C14.1599 25.265 14.1169 24.3973 14.1446 23.5259C14.1446 21.4349 15.3289 20.278 16.3733 19.2584C16.7569 18.9526 17.0904 18.5996 17.3747 18.1994C17.6586 17.7993 17.882 17.3681 18.0446 16.9051C18.0902 16.615 18.1121 16.3229 18.1104 16.0291C18.1084 15.7357 18.0827 15.444 18.0331 15.1543C17.9838 14.8647 17.911 14.5812 17.8154 14.3035C17.7194 14.0259 17.6019 13.7577 17.4624 13.4991C17.4488 13.4747 17.4364 13.4495 17.426 13.4234C17.4153 13.3973 17.4066 13.3704 17.3995 13.3435C17.3925 13.3162 17.3871 13.2885 17.3838 13.2608C17.3801 13.2326 17.3784 13.2049 17.3788 13.1768C17.3788 13.1486 17.3809 13.1205 17.3846 13.0928C17.3888 13.0646 17.3942 13.0373 17.4016 13.01C17.4091 12.9831 17.4182 12.9566 17.4293 12.9306C17.4401 12.9049 17.4525 12.8797 17.467 12.8553C17.4811 12.8308 17.4968 12.8077 17.5137 12.7853C17.5311 12.7634 17.5497 12.7423 17.5696 12.7224C17.5895 12.7026 17.6106 12.6844 17.6329 12.667C17.6553 12.65 17.6788 12.6347 17.7033 12.6206C17.7277 12.6066 17.7529 12.5941 17.7786 12.5834C17.8046 12.5726 17.8315 12.5635 17.8584 12.5565C17.8857 12.549 17.9131 12.5437 17.9412 12.5399C17.9689 12.5362 17.9971 12.5346 18.0252 12.5346C18.259 12.5453 18.4915 12.5714 18.7216 12.6132C18.9521 12.6554 19.1789 12.7125 19.4015 12.7849C19.6245 12.8573 19.8414 12.9442 20.0524 13.046C20.2634 13.1474 20.4666 13.2628 20.6619 13.3919C20.8576 13.5206 21.0434 13.6622 21.2201 13.8161C21.3964 13.97 21.5619 14.1355 21.7163 14.3114C21.8702 14.4877 22.0121 14.6735 22.1412 14.8688C22.2703 15.0641 22.3858 15.2673 22.488 15.4783C23.2833 17.0694 22.6506 18.6463 22.1429 19.9134C21.6579 21.1217 21.3832 21.8947 21.8003 22.5203C21.9108 22.6858 22.1532 22.9813 22.2658 22.9143C22.3717 22.8046 22.4603 22.6825 22.5319 22.548C22.6035 22.4136 22.6552 22.2716 22.6866 22.1227C22.7181 21.9737 22.7288 21.8231 22.7181 21.6712C22.7073 21.5193 22.6759 21.3716 22.6237 21.2284C22.5948 21.1713 22.5745 21.1109 22.5633 21.048C22.5526 20.9847 22.5509 20.9214 22.5584 20.8577C22.5662 20.794 22.5832 20.7327 22.6092 20.674C22.6353 20.6152 22.6692 20.5618 22.7115 20.513C22.7532 20.4646 22.8017 20.4232 22.8559 20.3888C22.9101 20.3549 22.9684 20.3293 23.0301 20.3123C23.0921 20.2953 23.155 20.2879 23.2192 20.29C23.2833 20.2916 23.3462 20.3028 23.407 20.3235C23.5014 20.3578 25.7864 21.1693 25.7864 25.4653C25.7864 25.5365 25.7864 25.6023 25.7897 25.6639C26.0872 25.4699 26.364 25.2489 26.6194 25.0019C26.65 24.9721 26.6827 24.9456 26.7187 24.9224C26.7543 24.8992 26.7919 24.8798 26.8312 24.8641C26.8709 24.8479 26.9115 24.8363 26.9533 24.8285C26.9951 24.8206 27.0373 24.8169 27.0799 24.8177C27.1225 24.8181 27.1643 24.8227 27.2061 24.8314C27.2479 24.8405 27.2881 24.8529 27.3274 24.8699C27.3663 24.8864 27.4035 24.9071 27.4387 24.9311C27.4739 24.9551 27.5061 24.9824 27.5359 25.0126C27.5657 25.0432 27.5922 25.0763 27.6154 25.1119C27.6385 25.1475 27.658 25.1852 27.6737 25.2245C27.6894 25.2642 27.7014 25.3048 27.7093 25.3466C27.7172 25.3884 27.7205 25.4306 27.7201 25.4732C27.7196 25.5158 27.7151 25.5576 27.706 25.5994C27.6973 25.6412 27.6845 25.6813 27.6679 25.7206C27.651 25.7595 27.6307 25.7968 27.6067 25.8315C27.5827 25.8667 27.5554 25.8994 27.5247 25.9288C26.9028 26.5217 26.1998 26.9935 25.4156 27.3448C25.3618 27.3696 25.3051 27.387 25.2464 27.3961C25.1876 27.4056 25.1284 27.4069 25.0697 27.3998C25.0105 27.3928 24.9534 27.3779 24.8984 27.3551C24.8433 27.3328 24.7924 27.303 24.7453 27.2662C24.6985 27.2293 24.6575 27.1867 24.6224 27.1387C24.5876 27.0907 24.5595 27.0386 24.5388 26.9831C24.5181 26.9273 24.5053 26.8697 24.5003 26.8102C24.4958 26.751 24.4986 26.6922 24.5102 26.6335C24.5413 26.4468 24.545 26.2594 24.5214 26.0711C24.5057 25.9056 24.4929 25.7136 24.4929 25.4653C24.5156 24.9638 24.4788 24.4664 24.3815 23.9736C24.2843 23.4807 24.1295 23.0069 23.9177 22.5514C23.8858 22.7016 23.8395 22.8468 23.7795 22.9883C23.7191 23.1294 23.6458 23.2631 23.5597 23.3901C23.4737 23.5172 23.376 23.6347 23.2672 23.7427C23.1579 23.8507 23.0396 23.9475 22.9121 24.0328C22.632 24.1954 21.6443 24.6216 20.7207 23.2378C19.9038 22.0134 20.4306 20.7009 20.9396 19.4317C21.4142 18.2466 21.8632 17.1277 21.3277 16.0564C21.216 15.8234 21.0827 15.6037 20.928 15.3972C20.7732 15.1907 20.5998 15.0012 20.4074 14.8287C20.2154 14.6561 20.0085 14.5042 19.7863 14.3722C19.5645 14.2406 19.332 14.1314 19.0882 14.0453C19.2695 14.5543 19.3779 15.0782 19.4139 15.6169C19.4499 16.1561 19.4118 16.6895 19.3001 17.2179C19.1139 17.7997 18.8491 18.3426 18.5048 18.847C18.1609 19.3515 17.7517 19.7963 17.2783 20.182C16.2906 21.1465 15.4381 21.9791 15.4381 23.5259C15.4381 25.3201 15.4621 26.2908 15.9723 27.0411C16.0055 27.0895 16.0315 27.1416 16.0501 27.1975C16.0692 27.2529 16.0803 27.31 16.0837 27.3688C16.087 27.4275 16.082 27.4855 16.0696 27.543C16.0572 27.6005 16.0369 27.6551 16.0096 27.7073C15.9823 27.759 15.9483 27.8066 15.9078 27.8492C15.8672 27.8918 15.8221 27.9282 15.7717 27.9589C15.7212 27.9891 15.6678 28.0122 15.6111 28.028C15.5544 28.0437 15.4969 28.0516 15.4381 28.0516Z" fill="#606060"/>
</g>
</svg>
